<svg xmlns="http://www.w3.org/2000/svg" viewBox="0 0 192.67 38.28"><defs><style>.a{font-size:12.91px;font-family:GothamBlack, Gotham Black;}.a,.b{fill:#1a3377;}</style></defs><title>marca-cid</title><text class="a" transform="translate(37.91 17.55)">Coordinación de</text><text class="a" transform="translate(37.91 29.72)">Infraestructura Digital</text><ellipse class="b" cx="19.47" cy="9.12" rx="2.01" ry="1.96"/><rect class="b" x="17.72" y="15.71" width="3.51" height="14.18" rx="0.99" ry="0.99"/><path class="b" d="M16.51,26.19a.83.83,0,0,0-.46-.74,7.29,7.29,0,0,1-.54-12.83A1.36,1.36,0,0,0,16,10.83a3.66,3.66,0,0,1-.38-1.62q0-.17,0-.34a1.09,1.09,0,0,0-1.55-1.06,12.14,12.14,0,0,0,1.26,22.64.85.85,0,0,0,1.14-.79Z"/><path class="b" d="M25,7.86A1.15,1.15,0,0,0,23.3,8.95q0,.13,0,.26a3.66,3.66,0,0,1-.39,1.64,1.33,1.33,0,0,0,.5,1.74A7.32,7.32,0,0,1,27,19.31a7.69,7.69,0,0,1-7.15,6.93,7.83,7.83,0,0,1-1.19,0,.85.85,0,0,0-.95.83v3.21a.84.84,0,0,0,.79.84q.59,0,1.2,0A12.38,12.38,0,0,0,32,18.88,12.22,12.22,0,0,0,25,7.86Z"/></svg>